
        <svg xmlns="http://www.w3.org/2000/svg" xmlns:xlink="http://www.w3.org/1999/xlink" version="1.1" width="3123.2615577374695" 
        height="844.3416705016666" viewBox="0 0 3123.2615577374695 844.3416705016666">
			
			<g transform="scale(6.163077886873478) translate(10, 10)">
				<defs id="SvgjsDefs3729"></defs><g id="SvgjsG3730" featureKey="symbolGroupContainer" transform="matrix(1,0,0,1,0,0)" fill="#1d5bb7">    <rect width="132" height="117"></rect></g><g id="SvgjsG3731" featureKey="symbolFeature-0" transform="matrix(1,0,0,1,18.04306435585022,10.513123512268066)" fill="#ffffff"><path xmlns="http://www.w3.org/2000/svg" d="M28.036,91.512c-0.38,0-0.764-0.104-1.096-0.324c-0.708-0.467-1.048-1.332-0.844-2.155l3.552-14.353H15.872  c-0.944,0-1.764-0.656-1.956-1.584L2,16.368c-0.116-0.556,0.004-1.132,0.34-1.588c0.332-0.456,0.84-0.752,1.404-0.813L91.828,4.5  c0.607-0.072,1.22,0.156,1.648,0.592c0.428,0.436,0.631,1.056,0.547,1.66l-7.836,58.191c-0.136,0.992-0.979,1.736-1.983,1.736  H61.216L29.256,91.1C28.892,91.376,28.464,91.512,28.036,91.512L28.036,91.512z"></path></g><g id="SvgjsG3732" featureKey="nameLeftFeature-0" transform="matrix(1.9485160589037167,0,0,1.9485160589037167,152.00000092912487,34.491243267809615)" fill="#1d5bb7"><path d="M4.52 4.880000000000001 l5.8 0 c0.82 0 1.48 0.66 1.48 1.48 c0 0.8 -0.66 1.46 -1.48 1.46 l-5.82 0 c-0.86 0 -1.56 0.7 -1.56 1.58 c0 0.86 0.7 1.56 1.56 1.56 l4 0 c2.5 0 4.52 2.02 4.52 4.52 c0 0.34 -0.28 0.6 -0.6 0.6 c-0.34 0 -0.62 -0.26 -0.62 -0.6 c0 -1.82 -1.48 -3.3 -3.3 -3.3 l-4 0 c-1.54 0 -2.78 -1.24 -2.78 -2.78 s1.24 -2.8 2.78 -2.8 l5.82 0 c0.14 0 0.26 -0.1 0.26 -0.24 s-0.12 -0.26 -0.26 -0.26 l-5.8 0 c-1.82 0 -3.3 1.48 -3.3 3.3 c0 0.34 -0.28 0.6 -0.62 0.6 c-0.32 0 -0.6 -0.26 -0.6 -0.6 c0 -2.5 2.02 -4.52 4.52 -4.52 z M4.52 12.7 l4 0 c1.54 0 2.78 1.26 2.78 2.8 s-1.24 2.78 -2.78 2.78 l-6.4 0 c-0.14 0 -0.26 0.12 -0.26 0.26 s0.12 0.24 0.26 0.24 l6.38 0 c0.34 0 0.6 0.28 0.6 0.62 c0 0.32 -0.26 0.6 -0.6 0.6 l-6.38 0 c-0.82 0 -1.48 -0.66 -1.48 -1.46 s0.62 -1.48 1.42 -1.48 l6.46 0 c0.86 0 1.56 -0.7 1.56 -1.56 c0 -0.88 -0.7 -1.58 -1.56 -1.58 l-4 0 c-0.34 0 -0.6 -0.28 -0.6 -0.6 c0 -0.34 0.26 -0.62 0.6 -0.62 z M15.22 4.880000000000001 l12.86 0 c0.32 0 0.6 0.28 0.6 0.6 c0 0.34 -0.28 0.62 -0.6 0.62 l-12.86 0 c-0.32 0 -0.6 -0.28 -0.6 -0.62 c0 -0.32 0.28 -0.6 0.6 -0.6 z M15.22 6.6 l4.4 0 c0.98 0 1.78 0.8 1.78 1.78 l0 11.02 c0 0.32 -0.28 0.6 -0.62 0.6 c-0.32 0 -0.6 -0.28 -0.6 -0.6 l0 -11.02 c0 -0.3 -0.26 -0.56 -0.56 -0.56 l-4.4 0 c-0.32 0 -0.6 -0.26 -0.6 -0.6 s0.28 -0.62 0.6 -0.62 z M23.68 6.6 l4.4 0 c0.32 0 0.6 0.28 0.6 0.62 s-0.28 0.6 -0.6 0.6 l-4.4 0 c-0.3 0 -0.56 0.26 -0.56 0.56 l0 11.02 c0 0.32 -0.26 0.6 -0.6 0.6 s-0.62 -0.28 -0.62 -0.6 l0 -11.02 c0 -0.98 0.8 -1.78 1.78 -1.78 z M42.02 4.880000000000001 c0.8 0 1.44 0.64 1.46 1.44 l0 7.32 c0 1.76 -0.68 3.42 -1.94 4.68 c-1.28 1.28 -2.98 1.92 -4.66 1.92 c-1.7 0 -3.38 -0.64 -4.66 -1.92 c-1.26 -1.26 -1.94 -2.92 -1.94 -4.68 c0 -0.32 0.26 -0.6 0.6 -0.6 c0.32 0 0.6 0.28 0.6 0.6 c0 1.44 0.56 2.8 1.58 3.82 c2.1 2.12 5.54 2.12 7.64 0 c1.02 -1.02 1.58 -2.38 1.58 -3.82 l0 -7.3 c0 -0.14 -0.12 -0.26 -0.26 -0.26 c-0.16 0 -0.28 0.12 -0.28 0.26 l0 7.3 c0 1.3 -0.5 2.52 -1.42 3.44 s-2.14 1.42 -3.44 1.42 s-2.52 -0.5 -3.44 -1.42 s-1.42 -2.14 -1.42 -3.44 l0 -8.16 c0 -0.34 0.26 -0.6 0.58 -0.6 c0.34 0 0.6 0.26 0.6 0.6 l0 8.16 c0 0.98 0.38 1.9 1.08 2.6 s1.62 1.08 2.6 1.08 s1.9 -0.38 2.6 -1.08 c0.68 -0.7 1.08 -1.62 1.08 -2.6 l0 -7.32 c0 -0.8 0.66 -1.44 1.46 -1.44 z M51.58 4.9 c4.18 0 7.56 3.38 7.56 7.54 c0 4.18 -3.38 7.56 -7.56 7.56 l-4.36 0 c-1.18 0 -2.14 -0.96 -2.14 -2.14 l0 -10.68 c0 -0.32 0.28 -0.6 0.6 -0.6 c0.34 0 0.62 0.28 0.62 0.6 l0 10.68 c0 0.52 0.4 0.92 0.92 0.92 l4.36 0 c3.5 0 6.34 -2.84 6.34 -6.34 c0 -3.48 -2.84 -6.34 -6.34 -6.34 c-0.32 0 -0.6 -0.26 -0.6 -0.6 s0.28 -0.6 0.6 -0.6 z M47.379999999999995 6.58 l4.2 0 c3.24 0 5.88 2.64 5.88 5.86 c0 3.24 -2.64 5.88 -5.88 5.88 c-0.32 0 -0.6 -0.28 -0.6 -0.62 s0.28 -0.6 0.6 -0.6 c2.56 0 4.66 -2.1 4.66 -4.66 s-2.1 -4.64 -4.66 -4.64 l-3.58 0 l0 9.9 c0 0.34 -0.28 0.62 -0.62 0.62 s-0.6 -0.28 -0.6 -0.62 l0 -10.52 c0 -0.32 0.26 -0.6 0.6 -0.6 z M64.24 4.880000000000001 l7.42 0 c0.8 0 1.46 0.66 1.46 1.46 s-0.62 1.48 -1.42 1.48 l-7.46 0 c-0.3 0 -0.56 0.24 -0.56 0.56 c0 0.3 0.26 0.56 0.56 0.56 c0.34 0 0.62 0.26 0.62 0.6 s-0.28 0.62 -0.62 0.62 c-0.98 0 -1.76 -0.8 -1.76 -1.78 s0.78 -1.78 1.76 -1.78 l7.42 0 c0.14 0 0.24 -0.12 0.24 -0.26 s-0.1 -0.24 -0.24 -0.24 l-7.42 0 c-1.26 0 -2.28 1.02 -2.28 2.28 s1.02 2.28 2.28 2.28 l5.38 0 c0.98 0 1.78 0.8 1.78 1.8 c0 0.98 -0.8 1.76 -1.78 1.76 l-5.38 0 c-1.26 0 -2.28 1.02 -2.28 2.28 s1.02 2.28 2.28 2.28 l8.26 0 c0.34 0 0.62 0.28 0.62 0.62 s-0.28 0.6 -0.62 0.6 l-8.26 0 c-1.94 0 -3.5 -1.56 -3.5 -3.5 c0 -1.92 1.56 -3.5 3.5 -3.5 l5.38 0 c0.32 0 0.56 -0.24 0.56 -0.54 c0 -0.34 -0.24 -0.58 -0.56 -0.58 l-5.38 0 c-1.92 0 -3.5 -1.58 -3.5 -3.5 c0 -1.94 1.58 -3.5 3.5 -3.5 z M64.24 14.74 l5.38 0 c0.34 0 0.62 0.26 0.62 0.6 s-0.28 0.62 -0.62 0.62 l-5.38 0 c-0.3 0 -0.56 0.24 -0.56 0.54 c0 0.32 0.26 0.56 0.56 0.56 c0.34 0 0.6 0.28 0.6 0.62 c0 0.32 -0.26 0.6 -0.6 0.6 c-0.98 0 -1.78 -0.8 -1.78 -1.78 s0.8 -1.76 1.78 -1.76 z M76.46 5.359999999999999 c1.62 -0.94 3.72 -0.4 4.78 1.24 l7.18 11.18 c0.42 0.7 0.18 1.64 -0.52 2.04 c-0.62 0.34 -1.5 0.28 -2 -0.54 l-7.14 -11.08 c-0.14 -0.22 -0.48 -0.5 -0.82 -0.3 c-0.16 0.1 -0.28 0.28 -0.28 0.48 l0 11.02 c0 0.32 -0.28 0.6 -0.6 0.6 c-0.34 0 -0.62 -0.28 -0.62 -0.6 l0 -11.02 c0 -0.64 0.34 -1.22 0.9 -1.54 c0.94 -0.54 1.96 -0.04 2.44 0.7 l7.14 11.08 c0.08 0.14 0.2 0.26 0.38 0.16 s0.14 -0.28 0.06 -0.38 l-7.14 -11.14 c-0.7 -1.1 -2.06 -1.48 -3.14 -0.86 c-0.7 0.42 -1.14 1.16 -1.14 1.96 l0 11.04 c0 0.32 -0.28 0.6 -0.62 0.6 c-0.32 0 -0.6 -0.28 -0.6 -0.6 l0 -10.96 c-0.02 -1.26 0.64 -2.46 1.74 -3.08 z M87.16 4.9 c0.82 0 1.48 0.66 1.48 1.46 l0 8.58 c0 0.34 -0.28 0.6 -0.6 0.6 c-0.34 0 -0.62 -0.26 -0.62 -0.6 l0 -8.58 c0 -0.14 -0.12 -0.26 -0.26 -0.26 s-0.24 0.12 -0.24 0.26 l0 5.74 c0 0.34 -0.28 0.62 -0.62 0.62 s-0.6 -0.28 -0.6 -0.62 l0 -5.74 c0 -0.8 0.66 -1.46 1.46 -1.46 z M90.83999999999999 4.880000000000001 l12.86 0 c0.32 0 0.6 0.28 0.6 0.6 c0 0.34 -0.28 0.62 -0.6 0.62 l-12.86 0 c-0.32 0 -0.6 -0.28 -0.6 -0.62 c0 -0.32 0.28 -0.6 0.6 -0.6 z M90.83999999999999 6.6 l4.4 0 c0.98 0 1.78 0.8 1.78 1.78 l0 11.02 c0 0.32 -0.28 0.6 -0.62 0.6 c-0.32 0 -0.6 -0.28 -0.6 -0.6 l0 -11.02 c0 -0.3 -0.26 -0.56 -0.56 -0.56 l-4.4 0 c-0.32 0 -0.6 -0.26 -0.6 -0.6 s0.28 -0.62 0.6 -0.62 z M99.3 6.6 l4.4 0 c0.32 0 0.6 0.28 0.6 0.62 s-0.28 0.6 -0.6 0.6 l-4.4 0 c-0.3 0 -0.56 0.26 -0.56 0.56 l0 11.02 c0 0.32 -0.26 0.6 -0.6 0.6 s-0.62 -0.28 -0.62 -0.6 l0 -11.02 c0 -0.98 0.8 -1.78 1.78 -1.78 z"></path></g><g id="SvgjsG3733" featureKey="nameRightFeature-0" transform="matrix(2.323695897206275,0,0,2.323695897206275,360.1283471442995,27.455285477817213)" fill="#1d5bb7"><path d="M6.66 20 c-0.14 0 -0.26 -0.12 -0.26 -0.26 l0 -1.82 c0 -0.06 0.02 -0.12 0.06 -0.18 l5.26 -7.46 l-4.84 0 c-0.14 0 -0.26 -0.12 -0.26 -0.26 l0 -2.26 c0 -0.14 0.12 -0.26 0.26 -0.26 l8.68 0 c0.14 0 0.26 0.12 0.26 0.26 l0 1.82 c0 0.04 -0.02 0.1 -0.06 0.16 l-5.22 7.48 l5.12 0 c0.08 0 0.14 0.04 0.18 0.08 c0.06 0.04 0.08 0.12 0.08 0.18 l-0.02 2.26 c0 0.14 -0.1 0.26 -0.26 0.26 l-8.98 0 z M24.360000000000003 20 c-1.2 0 -2.3 -0.28 -3.26 -0.84 c-0.98 -0.56 -1.76 -1.36 -2.34 -2.32 c-0.56 -0.98 -0.84 -2.1 -0.84 -3.3 c0 -1.18 0.28 -2.28 0.84 -3.26 c0.58 -0.98 1.34 -1.76 2.32 -2.32 s2.08 -0.84 3.28 -0.84 c1.18 0 2.28 0.28 3.26 0.84 s1.76 1.34 2.32 2.32 c0.58 0.98 0.86 2.08 0.86 3.26 c0 1.2 -0.28 2.3 -0.86 3.28 c-0.56 0.98 -1.34 1.76 -2.32 2.34 c-0.98 0.56 -2.08 0.84 -3.26 0.84 z M24.400000000000002 17.12 c0.58 0 1.12 -0.16 1.6 -0.46 c0.5 -0.32 0.9 -0.74 1.18 -1.3 c0.3 -0.54 0.44 -1.16 0.44 -1.82 c0 -0.64 -0.14 -1.26 -0.44 -1.8 c-0.28 -0.54 -0.68 -0.96 -1.18 -1.28 c-0.48 -0.3 -1.02 -0.46 -1.6 -0.46 c-0.6 0 -1.14 0.16 -1.64 0.46 c-0.52 0.32 -0.92 0.74 -1.22 1.28 c-0.3 0.56 -0.44 1.16 -0.44 1.8 c0 0.66 0.14 1.28 0.44 1.82 c0.32 0.54 0.72 0.98 1.22 1.28 c0.5 0.32 1.04 0.48 1.64 0.48 z M33.06 20 c-0.14 0 -0.26 -0.12 -0.26 -0.26 l0 -11.98 c0 -0.14 0.12 -0.26 0.26 -0.26 l2.36 0 c0.08 0 0.16 0.04 0.22 0.1 l4.6 7.1 l0 -6.94 c0 -0.14 0.12 -0.26 0.26 -0.26 l2.46 0 c0.14 0 0.26 0.12 0.26 0.26 l0 11.98 c0 0.14 -0.12 0.26 -0.26 0.26 l-2.36 0 c-0.08 0 -0.16 -0.04 -0.22 -0.1 l-4.58 -7.06 l0 6.9 c0 0.14 -0.12 0.26 -0.26 0.26 l-2.48 0 z M45.220000000000006 20 l0 -11.98 c0 -0.5 0.1 -0.6 0.26 -0.6 l8.76 0 c0.14 0 0.26 0.1 0.26 0.24 l0 2.26 c0 0.14 -0.12 0.26 -0.26 0.26 l-5.92 0 l0 2.08 l3.74 0 c0.14 0 0.26 0.12 0.26 0.26 l0 2.24 c0 0.14 -0.12 0.26 -0.26 0.26 l-3.74 0 l0 2.14 l5.9 0 c0.14 0 0.26 0.12 0.26 0.26 l0 2.24 c0 0.14 -0.12 0.26 -0.26 0.26 l-8.74 0 c-0.16 0 -0.26 -0.12 -0.26 0.08 z"></path></g>
			</g>
		</svg>
	